<svg height="512" viewBox="0 0 64 64" width="512" xmlns="http://www.w3.org/2000/svg"><g id="Manager-Support-Browser-Report-Business"><path d="m8 37h-1a2 2 0 0 0 0 4h2v-4z" fill="#ffb655"/><path d="m61 11v40a2.006 2.006 0 0 1 -2 2h-46a1.9 1.9 0 0 1 -1.36-.55 1.738 1.738 0 0 1 -.25-.29 1.886 1.886 0 0 1 -.39-1.16v-40z" fill="#5aaae7"/><path d="m61 17.27v33.73a2.006 2.006 0 0 1 -2 2h-35.66c11.65-6.5 28.64-18.34 37.66-35.73z" fill="#3d9ae2"/><path d="m27 41a2.006 2.006 0 0 1 -2 2h-1.08a6.952 6.952 0 0 1 -3.92 5.32v2.68l2.7 1.2 1.8.8h-11.5a1.9 1.9 0 0 1 -1.36-.55 1.738 1.738 0 0 1 -.25-.29l1.61-.72 1-.44v-2.68a5.906 5.906 0 0 1 -1-.58 6.53 6.53 0 0 1 -.95-.79 6.805 6.805 0 0 1 -1.05-1.35v-16.6h11a4 4 0 0 1 4 4v3l-2 2v1h1a2.006 2.006 0 0 1 2 2z" fill="#3d9ae2"/><path d="m61 5v6h-50v-6a2.006 2.006 0 0 1 2-2h46a2.006 2.006 0 0 1 2 2z" fill="#ff5023"/><path d="m55 31h-11v-11a10.994 10.994 0 0 1 11 11z" fill="#ffd422"/><path d="m40 35h11a11 11 0 1 1 -11-11z" fill="#00ccb3"/><path d="m23 37h-2v4h2a2 2 0 0 0 0-4z" fill="#ffb655"/><path d="m20.7 50.2-.7 2.8-3-1-1-2 2-1z" fill="#1e81ce"/><path d="m25.56 53a6.08 6.08 0 0 0 -2.12-1.58l-2.74-1.22-.7 2.8-3-1-.82.82.04.18 1.78 8h9v-4.1a6.012 6.012 0 0 0 -1.44-3.9z" fill="#3d9ae2"/><path d="m12 46v.32.68 2l2 1h2l2-1v-2-.68-.32z" fill="#ffc477"/><path d="m16 50h-2l-1 2 .82.82.18.18 1 1 1-1 .18-.18.82-.82z" fill="#ed1c24"/><path d="m16.22 53-.04-.18-.18.18-1 1-1-1-.18-.18-.04.18-1.78 8h6z" fill="#ff5023"/><path d="m13 52-1.36.45-1.64.55-.7-2.8-2.74 1.22a6 6 0 0 0 -3.56 5.48v4.1h9l1.78-8 .04-.18z" fill="#3d9ae2"/><path d="m12 49-1 .44-1.7.76.7 2.8 1.64-.55 1.36-.45 1-2z" fill="#1e81ce"/><path d="m21.44 36a2.009 2.009 0 0 1 -1.9-1.37l-.54-1.63-1.87 1.4a7.982 7.982 0 0 1 -4.8 1.6h-4.33v4a5.474 5.474 0 0 0 .08 1 6.874 6.874 0 0 0 1.97 3.95 6.53 6.53 0 0 0 .95.79 5.906 5.906 0 0 0 1 .58 6.958 6.958 0 0 0 6 0 6.952 6.952 0 0 0 3.92-5.32 5.474 5.474 0 0 0 .08-1v-4z" fill="#ffc477"/><path d="m18 46.32v2a6.958 6.958 0 0 1 -6 0v-2a6.958 6.958 0 0 0 6 0z" fill="#ffb655"/><path d="m20 27h-16l2 4-1 2 3 3h4.33a7.982 7.982 0 0 0 4.8-1.6l1.87-1.4.54 1.63a2.009 2.009 0 0 0 1.9 1.37h.56l2-2v-3a4 4 0 0 0 -4-4z" fill="#57565c"/><path d="m11 38h2v2h-2z"/><path d="m17 38h2v2h-2z"/><path d="m59 2h-46a3 3 0 0 0 -3 3v21h-6a1 1 0 0 0 -.895 1.447l1.777 3.553-.777 1.553a1 1 0 0 0 .188 1.154l2.331 2.331a2.992 2.992 0 0 0 .376 5.962h.263a8.022 8.022 0 0 0 3.737 4.918v1.432l-4.847 2.156a7 7 0 0 0 -4.153 6.394v4.1a1 1 0 0 0 1 1h24a1 1 0 0 0 1-1v-4.1a6.978 6.978 0 0 0 -.633-2.9h31.633a3 3 0 0 0 3-3v-46a3 3 0 0 0 -3-3zm-46 2h46a1 1 0 0 1 1 1v5h-48v-5a1 1 0 0 1 1-1zm-6.1 26.553-1.282-2.553h14.382a3 3 0 0 1 3 3v2.586l-1.414 1.414h-.145a1 1 0 0 1 -.949-.684l-.544-1.632a1 1 0 0 0 -.65-.639 1.016 1.016 0 0 0 -.298-.045 1 1 0 0 0 -.6.2l-1.866 1.4a7.045 7.045 0 0 1 -4.2 1.4h-3.92l-2.2-2.2.686-1.353a1 1 0 0 0 0-.894zm16.1 7.447a1 1 0 0 1 0 2zm-17 1a1 1 0 0 1 1-1v2a1 1 0 0 1 -1-1zm3 1v-3h3.333a9.05 9.05 0 0 0 5.4-1.8l.757-.567.106.316a2.994 2.994 0 0 0 2.404 2.016v3.035a6 6 0 0 1 -12 0zm6.783 11.8-.783.786-.783-.783.4-.8h.764zm-1.375 2.981a.919.919 0 0 0 1.184 0l1.161 5.219h-3.506zm3.3-3.6-.367-.735.683-.341 1.5.667-.234.937zm-2.708-3.181a7.953 7.953 0 0 0 2-.263v.645l-1.236.618h-1.528l-1.236-.618v-.645a7.953 7.953 0 0 0 2 .263zm-3.025 2.106.683.341-.367.735-1.583.528-.234-.937zm-7.975 6.794a5 5 0 0 1 2.966-4.567l1.653-.733.411 1.645a1 1 0 0 0 .97.755 1.01 1.01 0 0 0 .316-.051l2.407-.8-1.523 6.851h-7.2zm22 3.1h-7.2l-1.525-6.853 2.407.8a1.01 1.01 0 0 0 .318.053 1 1 0 0 0 .97-.757l.411-1.645 1.653.735a5 5 0 0 1 2.966 4.567zm33-8h-33.026a6.967 6.967 0 0 0 -2.127-1.494l-4.847-2.156v-1.432a8.022 8.022 0 0 0 3.737-4.918h.263a2.992 2.992 0 0 0 .376-5.962l1.331-1.331a1 1 0 0 0 .293-.707v-3a5.006 5.006 0 0 0 -5-5h-8v-14h48v39a1 1 0 0 1 -1 1z"/><path d="m16 6h2v2h-2z"/><path d="m20 6h2v2h-2z"/><path d="m24 6h2v2h-2z"/><path d="m44 19a1 1 0 0 0 -1 1v11a1 1 0 0 0 1 1h11a1 1 0 0 0 1-1 12.013 12.013 0 0 0 -12-12zm1 11v-8.95a10.018 10.018 0 0 1 8.95 8.95z"/><path d="m51 34h-10v-10a1 1 0 0 0 -1-1 12 12 0 1 0 12 12 1 1 0 0 0 -1-1zm-11 11a10 10 0 0 1 -1-19.95v9.95a1 1 0 0 0 1 1h9.95a10.013 10.013 0 0 1 -9.95 9z"/><path d="m16 16h2v2h-2z"/><path d="m20 16h4v2h-4z"/><path d="m16 20h8v2h-8z"/><path d="m32.293 21.707 1.414-1.414-4-4a1 1 0 0 0 -.707-.293h-3v2h2.586z"/></g></svg>