<svg id="Layer_3" enable-background="new 0 0 64 64" height="512" viewBox="0 0 64 64" width="512" xmlns="http://www.w3.org/2000/svg"><path d="m8.5 20.5c-.96.96-1.5 2.263-1.5 3.621v5.879h20v-5.879c0-1.358-.54-2.661-1.5-3.621-.96-.96-2.263-1.5-3.621-1.5h-9.757c-1.359 0-2.662.54-3.622 1.5z" fill="#b24e4a"/><path d="m22.5 20.5c-.96-.96-2.263-1.5-3.621-1.5h-6.757c-1.358 0-2.661.54-3.621 1.5s-1.501 2.263-1.501 3.621v5.879h17v-5.879c0-1.358-.54-2.661-1.5-3.621z" fill="#ed6863"/><circle cx="17" cy="9.121" fill="#fdd089" r="7"/><path d="m18.5 8.5c.96.96 2.263 1.5 3.621 1.5h1.818c.036-.288.061-.58.061-.879 0-3.866-3.134-7-7-7v2.757c0 1.359.54 2.662 1.5 3.622z" fill="#c69c6d"/><path d="m15.5 8.5c-.96.96-2.263 1.5-3.621 1.5h-1.818c-.036-.288-.061-.58-.061-.879 0-3.866 3.134-7 7-7v2.757c0 1.359-.54 2.662-1.5 3.622z" fill="#c69c6d"/><path d="m15 16v3l2 2 2-2v-3" fill="#fdd089"/><path d="m38 6.121h20v14h-20z" fill="#8d9299"/><path d="m38 6.121h17v14h-17z" fill="#bcc3cc"/><path d="m38 6h20v4h-20z" fill="#8d9299"/><path d="m38 6h17v4h-17z" fill="#bcc3cc"/><path d="m46 20h4v4h-4z" fill="#8d9299"/><path d="m36 24.121h24v6h-24z" fill="#8d9299"/><path d="m36 24.121h21v6h-21z" fill="#bcc3cc"/><path d="m4 34h56v24h-56z" fill="#8d9299"/><path d="m4 34h53v24h-53z" fill="#bcc3cc"/><path d="m2 58h60v4h-60z" fill="#47494d"/><path d="m2 58h57v4h-57z" fill="#6a6e73"/><path d="m2 30h60v4h-60z" fill="#47494d"/><path d="m2 30h57v4h-57z" fill="#6a6e73"/><circle cx="20" cy="46" fill="#7ec95f" r="8"/><circle cx="44" cy="46" fill="#7ec95f" r="8"/><path d="m62 63h-60c-.553 0-1-.447-1-1v-4c0-.553.447-1 1-1h60c.553 0 1 .447 1 1v4c0 .553-.447 1-1 1zm-59-2h58v-2h-58z"/><path d="m62 35.121h-60c-.553 0-1-.447-1-1v-4c0-.553.447-1 1-1h60c.553 0 1 .447 1 1v4c0 .553-.447 1-1 1zm-59-2h58v-2h-58z"/><path d="m3 34.121h2v23.879h-2z"/><path d="m59 34.121h2v23.879h-2z"/><path d="m17 22c-.256 0-.512-.098-.707-.293l-2-2c-.188-.187-.293-.441-.293-.707v-3h2v2.586l1 1 1-1v-2.586h2v3c0 .266-.105.52-.293.707l-2 2c-.195.195-.451.293-.707.293z"/><path d="m28 30.121h-2v-6c0-1.085-.44-2.146-1.207-2.914-.768-.767-1.829-1.207-2.914-1.207h-2.879v-2h2.879c1.635 0 3.172.637 4.328 1.793s1.793 2.693 1.793 4.328z"/><path d="m8 30.121h-2v-6c0-1.635.637-3.172 1.793-4.328s2.693-1.793 4.328-1.793h2.879v2h-2.879c-1.085 0-2.146.44-2.914 1.207-.767.768-1.207 1.829-1.207 2.914z"/><path d="m17 17.121c-4.411 0-8-3.589-8-8s3.589-8 8-8 8 3.589 8 8-3.589 8-8 8zm0-14c-3.309 0-6 2.691-6 6s2.691 6 6 6 6-2.691 6-6-2.691-6-6-6z"/><path d="m11.879 11h-1.879v-2h1.879c1.085 0 2.146-.44 2.914-1.207.767-.768 1.207-1.829 1.207-2.914v-2.879h2v2.879c0 1.635-.637 3.172-1.793 4.328s-2.693 1.793-4.328 1.793z"/><path d="m24 11h-1.879c-1.635 0-3.172-.637-4.328-1.793s-1.793-2.693-1.793-4.328v-2.879h2v2.879c0 1.085.44 2.146 1.207 2.914.768.767 1.829 1.207 2.914 1.207h1.879z"/><path d="m61 30.121h-2v-5h-22v5h-2v-6c0-.553.447-1 1-1h24c.553 0 1 .447 1 1z"/><path d="m58 21.121h-20c-.553 0-1-.447-1-1v-14c0-.553.447-1 1-1h20c.553 0 1 .447 1 1v14c0 .553-.447 1-1 1zm-19-2h18v-12h-18z"/><path d="m45 20.121h2v4h-2z"/><path d="m49 20.121h2v4h-2z"/><path d="m38 9.121h20v2h-20z"/><path d="m16 21h2v9.121h-2z"/><path d="m20 22h4v2h-4z"/><path d="m20 51h-3v-2h3c.552 0 1-.448 1-1s-.448-1-1-1c-1.654 0-3-1.346-3-3s1.346-3 3-3h3v2h-3c-.552 0-1 .448-1 1s.448 1 1 1c1.654 0 3 1.346 3 3s-1.346 3-3 3z"/><path d="m19 38h2v4h-2z"/><path d="m19 50h2v4h-2z"/><path d="m20 55c-4.963 0-9-4.037-9-9s4.037-9 9-9 9 4.037 9 9-4.037 9-9 9zm0-16c-3.859 0-7 3.141-7 7s3.141 7 7 7 7-3.141 7-7-3.141-7-7-7z"/><path d="m44 51h-3v-2h3c.552 0 1-.448 1-1s-.448-1-1-1c-1.654 0-3-1.346-3-3s1.346-3 3-3h3v2h-3c-.552 0-1 .448-1 1s.448 1 1 1c1.654 0 3 1.346 3 3s-1.346 3-3 3z"/><path d="m43 38h2v4h-2z"/><path d="m43 50h2v4h-2z"/><path d="m44 55c-4.963 0-9-4.037-9-9s4.037-9 9-9 9 4.037 9 9-4.037 9-9 9zm0-16c-3.859 0-7 3.141-7 7s3.141 7 7 7 7-3.141 7-7-3.141-7-7-7z"/></svg>