<svg height="512pt" viewBox="0 -75 512 512" width="512pt" xmlns="http://www.w3.org/2000/svg"><path d="m458.667969 42.667969h-405.335938c-5.886719 0-10.664062 4.777343-10.664062 10.664062v298.667969c0 5.886719 4.777343 10.667969 10.664062 10.667969h42.667969c5.886719 0 10.667969-4.78125 10.667969-10.667969v-245.332031h298.664062v245.332031c0 5.886719 4.78125 10.667969 10.667969 10.667969h42.667969c5.886719 0 10.664062-4.78125 10.664062-10.667969v-298.667969c0-5.886719-4.777343-10.664062-10.664062-10.664062zm0 0" fill="#ffa000"/><path d="m480 0h-448c-5.886719 0-10.667969 4.777344-10.667969 10.667969v42.664062c0 5.890625 4.78125 10.667969 10.667969 10.667969h448c5.886719 0 10.667969-4.777344 10.667969-10.667969v-42.664062c0-5.890625-4.78125-10.667969-10.667969-10.667969zm0 0" fill="#ffc107"/><path d="m480 64h-448c-5.886719 0-10.667969-4.777344-10.667969-10.667969v-42.664062c0-5.890625 4.78125-10.667969 10.667969-10.667969h448c5.886719 0 10.667969 4.777344 10.667969 10.667969v42.664062c0 5.890625-4.78125 10.667969-10.667969 10.667969zm-437.332031-21.332031h426.664062v-21.335938h-426.664062zm0 0"/><path d="m458.667969 362.667969h-42.667969c-5.886719 0-10.667969-4.78125-10.667969-10.667969v-245.332031h-298.664062v245.332031c0 5.886719-4.78125 10.667969-10.667969 10.667969h-42.667969c-5.886719 0-10.664062-4.78125-10.664062-10.667969v-298.667969c0-5.886719 4.777343-10.664062 10.664062-10.664062h405.335938c5.886719 0 10.664062 4.777343 10.664062 10.664062v298.667969c0 5.886719-4.777343 10.667969-10.664062 10.667969zm-32-21.335938h21.332031v-277.332031h-384v277.332031h21.332031v-245.332031c0-5.886719 4.78125-10.667969 10.667969-10.667969h320c5.886719 0 10.667969 4.78125 10.667969 10.667969zm0 0"/><path d="m416 256h-320c-5.886719 0-10.667969-4.777344-10.667969-10.667969 0-5.886719 4.78125-10.664062 10.667969-10.664062h320c5.886719 0 10.667969 4.777343 10.667969 10.664062 0 5.890625-4.78125 10.667969-10.667969 10.667969zm0 0"/><path d="m32 21.332031h-21.332031c-5.890625 0-10.667969-4.777343-10.667969-10.664062 0-5.890625 4.777344-10.667969 10.667969-10.667969h21.332031c5.886719 0 10.667969 4.777344 10.667969 10.667969 0 5.886719-4.78125 10.664062-10.667969 10.664062zm0 0"/><path d="m501.332031 21.332031h-21.332031c-5.886719 0-10.667969-4.777343-10.667969-10.664062 0-5.890625 4.78125-10.667969 10.667969-10.667969h21.332031c5.890625 0 10.667969 4.777344 10.667969 10.667969 0 5.886719-4.777344 10.664062-10.667969 10.664062zm0 0"/></svg>